<svg xmlns="http://www.w3.org/2000/svg" viewBox="0 0 512 512">
  <defs>
    <linearGradient id="bg" x1="70" y1="40" x2="442" y2="472" gradientUnits="userSpaceOnUse">
      <stop offset="0" stop-color="#10172d"/>
      <stop offset="0.42" stop-color="#2b1552"/>
      <stop offset="1" stop-color="#04050d"/>
    </linearGradient>
    <conicGradient id="foil" from="132deg" cx="50%" cy="48%">
      <stop offset="0" stop-color="#ff4abf"/>
      <stop offset="0.22" stop-color="#fff175"/>
      <stop offset="0.42" stop-color="#42f6ff"/>
      <stop offset="0.68" stop-color="#8b6cff"/>
      <stop offset="1" stop-color="#ff4abf"/>
    </conicGradient>
    <filter id="shadow" x="-20%" y="-20%" width="140%" height="140%">
      <feDropShadow dx="0" dy="18" stdDeviation="22" flood-color="#000" flood-opacity="0.42"/>
    </filter>
  </defs>
  <rect width="512" height="512" rx="112" fill="#02030a"/>
  <rect x="86" y="44" width="340" height="424" rx="38" fill="url(#bg)" filter="url(#shadow)"/>
  <rect x="110" y="68" width="292" height="376" rx="28" fill="none" stroke="#fff" stroke-opacity="0.22" stroke-width="5"/>
  <path d="M154 323c22-92 61-176 102-250 42 75 82 158 103 250-59-27-146-27-205 0Z" fill="url(#foil)" opacity="0.92"/>
  <path d="M194 308c22-73 39-120 62-170 24 50 42 98 63 170-40-16-85-16-125 0Z" fill="#090d20" opacity="0.72"/>
  <path d="M256 93l15 46h49l-40 28 16 47-40-29-40 29 16-47-40-28h49l15-46Z" fill="#f8ffff"/>
  <circle cx="160" cy="142" r="5" fill="#fff" opacity="0.88"/>
  <circle cx="365" cy="220" r="4" fill="#fff" opacity="0.78"/>
  <circle cx="198" cy="386" r="4" fill="#fff" opacity="0.72"/>
</svg>
